<svg width="554" height="608" viewBox="0 0 554 608" fill="none" xmlns="http://www.w3.org/2000/svg">
<circle cx="131" cy="89" r="64" fill="url(#paint0_linear)"/>
<g clip-path="url(#clip0)">
<path d="M145.476 74.6074H116.608C114.624 74.6074 113 76.2312 113 78.2158V99.8662C113 101.851 114.624 103.475 116.608 103.475H145.476C147.46 103.475 149.084 101.851 149.084 99.8662V78.2158C149.084 76.2312 147.46 74.6074 145.476 74.6074ZM145.476 99.8662H141.867V83.9893L131.042 90.8452L120.217 83.9893V99.8662H116.608V78.2158H118.773L131.042 85.7934L143.311 78.2158H145.476V99.8662Z" fill="white"/>
</g>
<circle cx="497" cy="322" r="57" fill="url(#paint1_linear)"/>
<g clip-path="url(#clip1)">
<path d="M515.568 326.254C515.853 324.955 516.005 323.606 516.006 322.221C516.014 311.839 507.605 303.418 497.223 303.411C496.127 303.41 495.053 303.504 494.008 303.684C492.329 302.624 490.342 302.009 488.21 302.007C482.189 302.003 477.305 306.881 477.3 312.901C477.298 314.914 477.844 316.797 478.794 318.416C478.544 319.637 478.412 320.901 478.411 322.196C478.403 332.578 486.812 341 497.194 341.007C498.37 341.007 499.52 340.899 500.636 340.693C502.17 341.519 503.924 341.989 505.788 341.99C511.809 341.994 516.693 337.117 516.698 331.096C516.699 329.357 516.291 327.714 515.568 326.254ZM506.842 331.198C505.972 332.428 504.686 333.403 503.021 334.094C501.372 334.778 499.396 335.124 497.146 335.123C494.446 335.121 492.183 334.645 490.417 333.706C489.155 333.023 488.114 332.098 487.324 330.958C486.527 329.805 486.122 328.662 486.123 327.56C486.124 326.871 486.388 326.274 486.909 325.786C487.424 325.302 488.084 325.057 488.871 325.057C489.517 325.058 490.074 325.252 490.527 325.635C490.959 326.002 491.33 326.545 491.628 327.246C491.96 328.009 492.323 328.653 492.706 329.161C493.074 329.649 493.605 330.06 494.282 330.38C494.963 330.704 495.882 330.868 497.011 330.868C498.565 330.869 499.84 330.538 500.799 329.885C501.735 329.246 502.191 328.479 502.192 327.54C502.192 326.798 501.955 326.215 501.467 325.757C500.956 325.278 500.281 324.905 499.462 324.649C498.608 324.382 497.448 324.094 496.014 323.793C494.071 323.375 492.419 322.88 491.104 322.321C491.099 322.319 491.094 322.317 491.089 322.315C489.741 321.741 488.655 320.945 487.861 319.95C487.055 318.939 486.647 317.671 486.648 316.182C486.649 314.762 487.08 313.482 487.927 312.378C488.769 311.282 489.997 310.431 491.578 309.847C493.139 309.271 494.995 308.98 497.094 308.982C498.773 308.983 500.249 309.178 501.481 309.562C502.719 309.948 503.763 310.47 504.584 311.112C505.41 311.758 506.024 312.45 506.41 313.168C506.799 313.893 506.997 314.615 506.996 315.312C506.996 315.984 506.736 316.594 506.224 317.126C505.708 317.661 505.059 317.932 504.292 317.931C503.596 317.931 503.052 317.761 502.674 317.426C502.322 317.114 501.958 316.629 501.553 315.931C501.085 315.04 500.518 314.338 499.868 313.843C499.237 313.362 498.181 313.117 496.73 313.116C495.383 313.116 494.286 313.385 493.472 313.918C492.688 314.432 492.306 315.021 492.306 315.719C492.306 316.148 492.428 316.506 492.68 316.814C492.947 317.14 493.323 317.427 493.799 317.666C494.293 317.914 494.802 318.112 495.312 318.253C495.834 318.399 496.711 318.614 497.913 318.892C499.179 319.165 500.358 319.465 501.432 319.787C501.648 319.851 501.861 319.916 502.067 319.983C503.319 320.384 504.4 320.879 505.282 321.453C506.182 322.04 506.894 322.794 507.399 323.693C507.906 324.596 508.162 325.71 508.161 327.004C508.16 328.553 507.716 329.964 506.842 331.198Z" fill="white"/>
</g>
<circle cx="418" cy="47" r="47" fill="url(#paint2_linear)"/>
<path d="M426.429 34.4258C423.185 34.4266 420.227 35.6564 417.998 37.6763C415.768 35.659 412.812 34.4284 409.571 34.4284C409.544 34.4284 409.516 34.4284 409.49 34.4284C402.589 34.4735 397 40.0882 397 46.9994C397 53.9384 402.632 59.5696 409.57 59.5696C412.811 59.5696 415.767 58.3407 417.997 56.3217C417.531 55.9011 417.109 55.4353 416.711 54.9479H419.307C418.916 55.4275 418.489 55.8768 418.03 56.2948H418.029C418.018 56.3061 418.007 56.313 417.997 56.3225C420.228 58.3433 423.187 59.5748 426.433 59.5739C433.376 59.5713 439.002 53.941 439 46.9994C439 46.9968 439 46.9951 439 46.9934C439.001 40.0517 433.371 34.424 426.429 34.4258ZM416.855 38.9746H419.245C419.597 39.4013 419.924 39.8505 420.22 40.3206H415.958C416.233 39.8714 416.534 39.4091 416.855 38.9746ZM415.215 41.6406H420.945C421.149 42.0759 421.329 42.5261 421.487 42.9874H414.536C414.606 42.8574 414.848 42.3335 415.215 41.6406ZM402.132 50.2014L402.894 45.395L401.174 50.2014H400.252L400.133 45.395L399.318 50.2014H398.027L399.097 43.827H401.05L401.119 47.7383L402.438 43.827H404.556L403.501 50.2014H402.132ZM406.698 50.191L406.742 49.6819C406.721 49.6845 406.314 50.2968 405.369 50.2968C404.875 50.2968 404.077 50.0271 404.077 48.8545C404.077 47.3637 405.293 46.8693 406.451 46.8693C406.633 46.8693 407.026 46.9023 407.026 46.9023C407.026 46.9023 407.07 46.8112 407.07 46.5649C407.07 46.1599 406.706 46.1044 406.207 46.1044C405.328 46.1044 404.748 46.3394 404.748 46.3394L404.942 45.186C404.942 45.186 405.647 44.8911 406.563 44.8911C407.038 44.8911 408.402 44.9414 408.402 46.5051L407.876 50.191H406.698ZM411.678 48.5674C411.678 50.3462 409.955 50.2699 409.654 50.2699C408.531 50.2699 408.184 50.1146 408.152 50.106L408.331 48.9352C408.333 48.9248 408.895 49.139 409.52 49.139C409.881 49.139 410.349 49.1034 410.349 48.6724C410.349 48.0271 408.673 48.1815 408.673 46.649C408.673 45.297 409.678 44.9015 410.668 44.9015C411.433 44.9015 411.903 45.0064 411.903 45.0064L411.734 46.1877C411.734 46.1877 411.008 46.1278 410.82 46.1278C410.344 46.1278 410.084 46.2319 410.084 46.5649C410.084 47.2344 411.678 46.9066 411.678 48.5674ZM413.748 49.034C413.867 49.034 414.001 48.9933 414.093 48.9933L413.926 50.1303C413.791 50.1675 413.41 50.3028 412.922 50.3063C412.299 50.3115 411.855 49.9629 411.855 49.1719C411.855 48.6412 412.616 44.2675 412.645 44.2389H413.984L413.848 45.0212H414.515L414.344 46.2813H413.636L413.26 48.603C413.231 48.7877 413.282 49.034 413.748 49.034ZM416.691 44.8737C418.16 44.8737 418.6 45.9492 418.6 46.8312C418.6 47.1841 418.423 48.0514 418.423 48.0514H415.703C415.703 48.0514 415.452 49.1225 416.889 49.1225C417.563 49.1225 418.31 48.7929 418.31 48.7929L418.075 50.0826C418.075 50.0826 417.643 50.3028 416.661 50.3028C415.597 50.3028 414.349 49.8527 414.349 47.9621C414.35 46.3238 415.345 44.8737 416.691 44.8737ZM420.236 53.6531H415.776C415.505 53.2195 415.252 52.7746 415.034 52.3071H420.969C420.75 52.7719 420.506 53.2212 420.236 53.6531ZM419.937 50.2109H418.563L419.398 45.0229H420.644L420.525 45.7748C420.525 45.7748 420.969 44.957 421.568 44.957C421.742 44.957 421.826 44.9744 421.826 44.9744C421.649 45.3369 421.492 45.669 421.329 46.5268C420.399 46.1972 420.328 47.995 419.937 50.2109ZM425.171 50.1303C425.171 50.1303 424.451 50.3141 424 50.3141C422.402 50.3141 421.591 49.2118 421.591 47.5423C421.591 45.0247 423.094 43.6839 424.639 43.6839C425.337 43.6839 426.146 44.0117 426.146 44.0117L425.928 45.4297C425.928 45.4297 425.38 45.0472 424.7 45.0472C423.789 45.0472 422.972 45.9162 422.972 47.4955C422.972 48.2734 423.353 48.9985 424.303 48.9985C424.755 48.9985 425.41 48.6698 425.41 48.6698L425.171 50.1303ZM428.392 50.1936L428.438 49.681C428.416 49.6836 428.008 50.2959 427.065 50.2959C426.57 50.2959 425.772 50.0262 425.772 48.8536C425.772 47.3628 426.988 46.8685 428.145 46.8685C428.327 46.8685 428.721 46.9014 428.721 46.9014C428.721 46.9014 428.766 46.8112 428.766 46.5649C428.766 46.1599 428.402 46.1044 427.902 46.1044C427.024 46.1044 426.445 46.3394 426.445 46.3394L426.639 45.186C426.639 45.186 427.343 44.8911 428.261 44.8911C428.734 44.8911 430.099 44.9414 430.098 46.5051L429.573 50.191C429.572 50.1936 428.392 50.1936 428.392 50.1936ZM431.174 50.2109H429.8L430.635 45.0229H431.882L431.763 45.7748C431.763 45.7748 432.208 44.957 432.807 44.957C432.981 44.957 433.064 44.9744 433.064 44.9744C432.888 45.3369 432.729 45.669 432.567 46.5268C431.636 46.1972 431.565 47.995 431.174 50.2109ZM435.275 50.197L435.333 49.7192C435.333 49.7192 434.889 50.2794 434.086 50.2794C432.973 50.2794 432.428 49.2049 432.428 48.1069C432.428 46.4088 433.449 44.9284 434.676 44.9284C435.465 44.9301 435.969 45.6265 435.969 45.6265L436.259 43.8356L437.6 43.833L436.577 50.197H435.275ZM437.922 50.0175C437.886 50.0817 437.836 50.1311 437.772 50.1693C437.709 50.2048 437.641 50.2231 437.57 50.2231C437.5 50.2231 437.434 50.2048 437.37 50.1693C437.305 50.1311 437.255 50.0817 437.219 50.0175C437.183 49.9525 437.166 49.8866 437.166 49.8163C437.166 49.7452 437.184 49.6775 437.219 49.6134C437.255 49.5492 437.308 49.4972 437.371 49.4625C437.437 49.4269 437.502 49.4087 437.57 49.4087C437.639 49.4087 437.705 49.4269 437.769 49.4625C437.835 49.498 437.886 49.5475 437.922 49.6134C437.959 49.6784 437.976 49.7461 437.976 49.8163C437.976 49.8866 437.958 49.9533 437.922 50.0175Z" fill="white"/>
<path d="M437.815 53.8529C437.806 53.8468 437.798 53.8372 437.784 53.832C437.771 53.8268 437.749 53.8242 437.715 53.8242H437.633V53.9545H437.72C437.761 53.9545 437.788 53.951 437.804 53.9363C437.818 53.9241 437.825 53.9093 437.825 53.8885C437.825 53.8746 437.822 53.865 437.815 53.8529Z" fill="white"/>
<path d="M438.094 53.7769C438.057 53.7093 438.006 53.6616 437.941 53.626C437.876 53.5905 437.81 53.5723 437.742 53.5723C437.673 53.5723 437.607 53.5905 437.543 53.626C437.479 53.6616 437.426 53.711 437.39 53.7769C437.353 53.8411 437.336 53.9088 437.336 53.9781C437.336 54.0475 437.355 54.116 437.39 54.1794C437.427 54.2435 437.478 54.2956 437.541 54.3311C437.605 54.3667 437.673 54.3849 437.744 54.3849C437.813 54.3849 437.881 54.3667 437.944 54.3311C438.008 54.2956 438.059 54.2435 438.094 54.1794C438.131 54.116 438.148 54.0484 438.148 53.9781C438.148 53.9079 438.13 53.8403 438.094 53.7769ZM437.845 54.2036L437.806 54.1351C437.776 54.0814 437.751 54.0458 437.732 54.0319C437.72 54.0232 437.701 54.0163 437.676 54.0163H437.636V54.2028H437.565V53.7648H437.715C437.767 53.7648 437.805 53.7691 437.826 53.7778C437.849 53.7865 437.869 53.7986 437.881 53.8203C437.895 53.8403 437.901 53.8619 437.901 53.8845C437.901 53.9166 437.889 53.9435 437.867 53.9686C437.845 53.9912 437.813 54.0059 437.776 54.0085C437.792 54.0137 437.804 54.0224 437.813 54.0319C437.832 54.0493 437.852 54.0779 437.878 54.1178L437.932 54.2036H437.845Z" fill="white"/>
<path d="M406.559 47.8652C405.578 47.8652 405.38 48.3058 405.38 48.6727C405.38 48.8617 405.488 49.1774 405.904 49.1774C406.709 49.1774 406.877 48.1211 406.851 47.8965C406.813 47.8886 406.788 47.8661 406.559 47.8652Z" fill="white"/>
<path d="M416.697 46.0723C415.967 46.0723 415.827 46.9022 415.827 46.9898H417.312C417.312 46.9231 417.452 46.0723 416.697 46.0723Z" fill="white"/>
<path d="M434.907 46.2168C434.318 46.2168 433.853 46.9002 433.854 47.9383C433.854 48.5714 434.079 48.9773 434.561 48.9773C435.286 48.9773 435.636 48.0311 435.636 47.326C435.636 46.5481 435.389 46.2168 434.907 46.2168Z" fill="white"/>
<path d="M437.861 49.6494C437.831 49.5956 437.788 49.554 437.734 49.5236C437.681 49.4933 437.626 49.4785 437.569 49.4785C437.513 49.4785 437.457 49.4941 437.403 49.5236C437.349 49.5514 437.307 49.5947 437.276 49.6494C437.246 49.704 437.23 49.7621 437.23 49.8185C437.23 49.8766 437.246 49.9338 437.275 49.9867C437.307 50.0405 437.348 50.0813 437.401 50.1134C437.455 50.1428 437.511 50.1602 437.569 50.1602C437.627 50.1602 437.684 50.1428 437.736 50.1134C437.79 50.083 437.831 50.0414 437.863 49.9867C437.893 49.933 437.907 49.8766 437.907 49.8185C437.907 49.7612 437.891 49.704 437.861 49.6494ZM437.673 50.0414L437.634 49.9737C437.603 49.9191 437.579 49.8844 437.561 49.8714C437.546 49.8601 437.529 49.8549 437.504 49.8549H437.464V50.0405H437.391V49.6034H437.543C437.594 49.6034 437.632 49.6077 437.654 49.6173C437.675 49.6251 437.694 49.6398 437.709 49.6589C437.724 49.678 437.729 49.6997 437.729 49.7231C437.729 49.7552 437.717 49.7821 437.694 49.8063C437.672 49.8315 437.641 49.8419 437.604 49.8462C437.622 49.8532 437.633 49.861 437.642 49.8688C437.66 49.887 437.681 49.913 437.706 49.9546L437.76 50.0414H437.673Z" fill="white"/>
<path d="M428.255 47.8652C427.274 47.8652 427.076 48.3058 427.076 48.6727C427.076 48.8617 427.183 49.1774 427.6 49.1774C428.405 49.1774 428.572 48.1211 428.547 47.8965C428.508 47.8886 428.483 47.8661 428.255 47.8652Z" fill="white"/>
<path d="M437.644 49.6925C437.637 49.6838 437.628 49.6769 437.615 49.6708C437.6 49.6665 437.578 49.6621 437.543 49.6621V49.663H437.464V49.795H437.55C437.591 49.795 437.618 49.7898 437.635 49.7768C437.648 49.7637 437.655 49.7472 437.655 49.7281C437.655 49.7134 437.652 49.7047 437.644 49.6925Z" fill="white"/>
<circle cx="304" cy="236" r="47" fill="url(#paint3_linear)"/>
<g clip-path="url(#clip2)">
<path d="M319.145 224.589C319.747 225.722 320.046 227.127 320.046 228.812C320.046 232.641 318.432 235.728 315.21 238.073C311.985 240.42 307.481 241.591 301.694 241.591H300.339C299.319 241.591 298.302 242.391 298.073 243.367L296.446 250.302C296.219 251.283 295.2 252.083 294.182 252.083H291.219L290.954 253.216C290.724 254.199 291.37 255 292.387 255H297.135C298.154 255 299.174 254.199 299.399 253.218L301.027 246.284C301.257 245.307 302.274 244.507 303.293 244.507H304.648C310.435 244.507 314.939 243.337 318.163 240.989C321.387 238.644 323 235.557 323 231.728C323 230.044 322.701 228.638 322.099 227.505C321.5 226.38 320.628 225.46 319.492 224.758C319.37 224.685 319.271 224.658 319.145 224.589ZM293.492 247.386L295.119 240.451C295.349 239.475 296.365 238.674 297.385 238.674H298.739C304.528 238.674 309.031 237.504 312.256 235.157C315.479 232.812 317.092 229.725 317.092 225.896C317.092 224.212 316.793 222.806 316.191 221.673C315.592 220.548 314.719 219.628 313.584 218.927C312.42 218.215 311.052 217.721 309.468 217.431C307.88 217.144 306.022 217 303.887 217H294C292.979 217 291.962 217.796 291.73 218.777L285.047 247.386C284.817 248.367 285.462 249.167 286.48 249.167H291.228C292.245 249.167 293.266 248.366 293.492 247.386ZM297.369 230.786L298.796 224.713C299.027 223.736 300.046 222.936 301.06 222.936H302.615C304.426 222.936 305.799 223.24 306.72 223.847C307.64 224.448 308.102 225.374 308.102 226.629C308.102 228.529 307.384 229.995 305.959 231.024C304.532 232.05 302.548 232.57 299.985 232.57H298.809C297.789 232.57 297.145 231.766 297.369 230.786Z" fill="white"/>
</g>
<circle cx="315" cy="468" r="47" fill="url(#paint4_linear)"/>
<g clip-path="url(#clip3)">
<path d="M326.98 456.885H303.887C302.299 456.885 301 458.184 301 459.771V477.092C301 478.679 302.299 479.978 303.887 479.978H326.98C328.568 479.978 329.867 478.679 329.867 477.092V459.771C329.867 458.184 328.568 456.885 326.98 456.885ZM326.98 477.092H324.094V464.39L315.434 469.875L306.773 464.39V477.092H303.887V459.771H305.619L315.434 465.834L325.248 459.771H326.98V477.092Z" fill="white"/>
</g>
<circle cx="171" cy="568" r="40" fill="url(#paint5_linear)"/>
<g clip-path="url(#clip4)">
<path d="M182.16 559.592C182.603 560.427 182.824 561.462 182.824 562.704C182.824 565.525 181.635 567.8 179.26 569.527C176.884 571.257 173.565 572.119 169.301 572.119H168.302C167.551 572.119 166.802 572.709 166.633 573.429L165.434 578.538C165.267 579.261 164.516 579.851 163.766 579.851H161.583L161.387 580.686C161.218 581.41 161.694 582 162.443 582H165.942C166.692 582 167.444 581.41 167.61 580.687L168.809 575.577C168.979 574.858 169.728 574.268 170.479 574.268H171.477C175.742 574.268 179.06 573.406 181.436 571.676C183.811 569.948 185 567.674 185 564.852C185 563.611 184.78 562.576 184.336 561.741C183.895 560.911 183.252 560.234 182.415 559.716C182.325 559.663 182.253 559.643 182.16 559.592ZM163.257 576.39L164.456 571.28C164.626 570.561 165.375 569.971 166.126 569.971H167.124C171.389 569.971 174.708 569.108 177.083 567.379C179.458 565.651 180.647 563.376 180.647 560.555C180.647 559.314 180.427 558.278 179.983 557.443C179.542 556.614 178.899 555.936 178.062 555.42C177.204 554.895 176.196 554.531 175.03 554.318C173.859 554.106 172.49 554 170.917 554H163.632C162.879 554 162.13 554.586 161.959 555.309L157.035 576.389C156.865 577.112 157.341 577.702 158.09 577.702H161.589C162.339 577.702 163.091 577.112 163.257 576.39ZM166.114 564.158L167.166 559.684C167.336 558.963 168.087 558.374 168.834 558.374H169.979C171.314 558.374 172.326 558.598 173.004 559.045C173.682 559.488 174.023 560.17 174.023 561.095C174.023 562.495 173.493 563.575 172.443 564.333C171.392 565.09 169.93 565.473 168.042 565.473H167.175C166.424 565.473 165.949 564.88 166.114 564.158Z" fill="white"/>
</g>
<circle cx="40" cy="309" r="40" fill="url(#paint6_linear)"/>
<path d="M48.0276 297.025C44.9376 297.026 42.1211 298.197 39.9983 300.121C37.874 298.2 35.0591 297.028 31.9724 297.028C31.9468 297.028 31.9204 297.028 31.8956 297.028C25.3225 297.071 20 302.418 20 309C20 315.609 25.3638 320.972 31.9716 320.972C35.0582 320.972 37.8731 319.801 39.9967 317.879C39.5532 317.478 39.1517 317.034 38.7726 316.57H41.2447C40.8722 317.027 40.4658 317.455 40.0289 317.853H40.0273C40.0173 317.864 40.0066 317.87 39.9967 317.879C42.1219 319.804 44.9401 320.977 48.0317 320.976C54.6436 320.974 60.0017 315.611 60 309C60 308.998 60 308.996 60 308.995C60.0008 302.383 54.6395 297.024 48.0276 297.025ZM38.9097 301.358H41.1853C41.5206 301.764 41.832 302.192 42.1145 302.64H38.0548C38.3167 302.212 38.6041 301.771 38.9097 301.358ZM37.3478 303.897H42.805C42.9991 304.311 43.1709 304.74 43.3212 305.179H36.7011C36.7672 305.055 36.9984 304.557 37.3478 303.897ZM24.8873 312.05L25.6133 307.472L23.9754 312.05H23.0974L22.9834 307.472L22.2078 312.05H20.9779L21.9972 305.979H23.8573L23.9225 309.704L25.1788 305.979H27.1967L26.1915 312.05H24.8873ZM29.236 312.04L29.2781 311.555C29.2583 311.557 28.8701 312.141 27.9706 312.141C27.4998 312.141 26.7399 311.884 26.7399 310.767C26.7399 309.347 27.8979 308.876 29.0006 308.876C29.174 308.876 29.5482 308.908 29.5482 308.908C29.5482 308.908 29.5903 308.821 29.5903 308.586C29.5903 308.201 29.2434 308.148 28.7685 308.148C27.9318 308.148 27.3792 308.372 27.3792 308.372L27.5642 307.273C27.5642 307.273 28.2349 306.992 29.108 306.992C29.5598 306.992 30.859 307.04 30.859 308.529L30.3585 312.04H29.236ZM33.9795 310.494C33.9795 312.188 32.3383 312.115 32.0517 312.115C30.9821 312.115 30.6517 311.967 30.6211 311.959L30.7913 310.844C30.7929 310.834 31.3282 311.038 31.9237 311.038C32.2673 311.038 32.7133 311.004 32.7133 310.594C32.7133 309.979 31.1175 310.126 31.1175 308.667C31.1175 307.379 32.074 307.002 33.0173 307.002C33.7458 307.002 34.1934 307.102 34.1934 307.102L34.0324 308.227C34.0324 308.227 33.341 308.17 33.1618 308.17C32.7084 308.17 32.4614 308.269 32.4614 308.586C32.4606 309.224 33.9795 308.912 33.9795 310.494ZM35.9503 310.938C36.0634 310.938 36.1915 310.899 36.279 310.899L36.1196 311.982C35.9916 312.018 35.629 312.146 35.164 312.15C34.5701 312.155 34.148 311.823 34.148 311.069C34.148 310.564 34.8724 306.398 34.9005 306.371H36.1749L36.0453 307.116H36.6813L36.5185 308.316H35.8437L35.4853 310.528C35.458 310.703 35.5067 310.938 35.9503 310.938ZM38.7536 306.976C40.1528 306.976 40.5716 308 40.5716 308.84C40.5716 309.176 40.4031 310.002 40.4031 310.002H37.8128C37.8128 310.002 37.5733 311.022 38.9419 311.022C39.5837 311.022 40.2957 310.708 40.2957 310.708L40.071 311.937C40.071 311.937 39.6597 312.146 38.7247 312.146C37.7112 312.146 36.5227 311.718 36.5227 309.917C36.5235 308.357 37.4717 306.976 38.7536 306.976ZM42.1293 315.337H37.8822C37.6237 314.924 37.3825 314.5 37.1752 314.055H42.8273C42.6191 314.498 42.3862 314.926 42.1293 315.337ZM41.8444 312.059H40.5361L41.3315 307.118H42.5184L42.4044 307.834C42.4044 307.834 42.8273 307.055 43.398 307.055C43.5641 307.055 43.6442 307.072 43.6442 307.072C43.4748 307.417 43.3253 307.733 43.1701 308.55C42.2846 308.236 42.2169 309.948 41.8444 312.059ZM46.8291 311.982C46.8291 311.982 46.1436 312.157 45.7141 312.157C44.1926 312.157 43.4203 311.107 43.4203 309.517C43.4203 307.12 44.8517 305.843 46.3228 305.843C46.9877 305.843 47.7583 306.155 47.7583 306.155L47.5502 307.505C47.5502 307.505 47.029 307.141 46.3806 307.141C45.5133 307.141 44.7353 307.969 44.7353 309.473C44.7353 310.214 45.0979 310.904 46.0031 310.904C46.4335 310.904 47.0571 310.591 47.0571 310.591L46.8291 311.982ZM49.8976 312.042L49.9405 311.554C49.9199 311.557 49.5317 312.14 48.633 312.14C48.1622 312.14 47.4023 311.883 47.4023 310.766C47.4023 309.346 48.5603 308.876 49.6622 308.876C49.8356 308.876 50.2106 308.907 50.2106 308.907C50.2106 308.907 50.2536 308.821 50.2536 308.586C50.2536 308.201 49.9067 308.148 49.4309 308.148C48.5942 308.148 48.0425 308.372 48.0425 308.372L48.2275 307.273C48.2275 307.273 48.8982 306.992 49.772 306.992C50.223 306.992 51.5231 307.04 51.5223 308.529L51.0217 312.04C51.0209 312.042 49.8976 312.042 49.8976 312.042ZM52.5465 312.059H51.2381L52.0335 307.118H53.2213L53.1073 307.834C53.1073 307.834 53.531 307.055 54.1018 307.055C54.2678 307.055 54.3471 307.072 54.3471 307.072C54.1786 307.417 54.0274 307.733 53.873 308.55C52.9867 308.236 52.919 309.948 52.5465 312.059ZM56.4525 312.046L56.5078 311.591C56.5078 311.591 56.0849 312.124 55.3201 312.124C54.2603 312.124 53.7408 311.101 53.7408 310.055C53.7408 308.438 54.7138 307.028 55.8817 307.028C56.6334 307.03 57.1132 307.693 57.1132 307.693L57.3891 305.987L58.6669 305.985L57.6922 312.046H56.4525ZM58.9733 311.875C58.9395 311.936 58.8916 311.983 58.8304 312.019C58.7701 312.053 58.7057 312.07 58.638 312.07C58.5719 312.07 58.5083 312.053 58.4472 312.019C58.3861 311.983 58.3382 311.936 58.3043 311.875C58.2696 311.813 58.2531 311.75 58.2531 311.683C58.2531 311.615 58.2704 311.551 58.3043 311.49C58.3382 311.429 58.3885 311.379 58.4488 311.346C58.5116 311.312 58.5736 311.295 58.638 311.295C58.7041 311.295 58.7668 311.312 58.8279 311.346C58.8907 311.38 58.9386 311.427 58.9733 311.49C59.0088 311.552 59.0245 311.616 59.0245 311.683C59.0245 311.75 59.008 311.814 58.9733 311.875Z" fill="white"/>
<path d="M58.8711 315.527C58.8629 315.522 58.8554 315.512 58.8422 315.507C58.829 315.502 58.8083 315.5 58.776 315.5H58.6982V315.624H58.781C58.8199 315.624 58.8455 315.621 58.8604 315.607C58.8745 315.595 58.8811 315.581 58.8811 315.561C58.8811 315.548 58.8778 315.539 58.8711 315.527Z" fill="white"/>
<path d="M59.1379 315.455C59.1024 315.39 59.0537 315.345 58.9917 315.311C58.9298 315.277 58.867 315.26 58.8026 315.26C58.7365 315.26 58.6737 315.277 58.6126 315.311C58.5515 315.345 58.5011 315.392 58.4672 315.455C58.4317 315.516 58.416 315.58 58.416 315.646C58.416 315.712 58.4334 315.778 58.4672 315.838C58.5027 315.899 58.5506 315.949 58.6109 315.982C58.6721 316.016 58.7365 316.034 58.8042 316.034C58.8703 316.034 58.9347 316.016 58.995 315.982C59.0553 315.949 59.104 315.899 59.1379 315.838C59.1726 315.778 59.1891 315.713 59.1891 315.646C59.1891 315.579 59.1718 315.515 59.1379 315.455ZM58.9 315.861L58.8637 315.796C58.8348 315.745 58.8108 315.711 58.7927 315.698C58.7811 315.689 58.7629 315.683 58.7398 315.683H58.701V315.86H58.6332V315.443H58.777C58.8265 315.443 58.862 315.447 58.8819 315.456C58.9042 315.464 58.9232 315.475 58.9347 315.496C58.9479 315.515 58.9537 315.536 58.9537 315.557C58.9537 315.588 58.9422 315.613 58.9215 315.637C58.9 315.659 58.8703 315.673 58.8348 315.675C58.8496 315.68 58.8612 315.688 58.8703 315.698C58.8876 315.714 58.9075 315.741 58.9322 315.779L58.9835 315.861H58.9Z" fill="white"/>
<path d="M29.1038 309.824C28.1696 309.824 27.9805 310.244 27.9805 310.593C27.9805 310.773 28.0837 311.074 28.4794 311.074C29.2467 311.074 29.4061 310.068 29.3813 309.854C29.345 309.847 29.3218 309.825 29.1038 309.824Z" fill="white"/>
<path d="M38.7586 308.117C38.064 308.117 37.9302 308.908 37.9302 308.991H39.3451C39.3451 308.927 39.478 308.117 38.7586 308.117Z" fill="white"/>
<path d="M56.1022 308.254C55.5414 308.254 55.0978 308.905 55.0986 309.893C55.0986 310.496 55.3134 310.883 55.7726 310.883C56.4631 310.883 56.796 309.982 56.796 309.31C56.796 308.569 56.5606 308.254 56.1022 308.254Z" fill="white"/>
<path d="M58.9154 311.524C58.8865 311.473 58.846 311.433 58.7948 311.404C58.7436 311.375 58.6916 311.361 58.6371 311.361C58.5842 311.361 58.5305 311.376 58.4793 311.404C58.4281 311.431 58.3876 311.472 58.3587 311.524C58.3298 311.576 58.3149 311.631 58.3149 311.685C58.3149 311.74 58.3298 311.795 58.3571 311.845C58.3876 311.897 58.4264 311.935 58.4777 311.966C58.5289 311.994 58.5817 312.011 58.6371 312.011C58.6924 312.011 58.7469 311.994 58.7965 311.966C58.8477 311.937 58.8873 311.897 58.9171 311.845C58.946 311.794 58.9592 311.74 58.9592 311.685C58.9592 311.631 58.9443 311.576 58.9154 311.524ZM58.7362 311.897L58.699 311.833C58.6701 311.781 58.647 311.748 58.6296 311.735C58.6156 311.725 58.5991 311.72 58.5751 311.72H58.5371V311.897H58.4677V311.48H58.6123C58.661 311.48 58.6974 311.484 58.718 311.493C58.7387 311.501 58.7568 311.515 58.7709 311.533C58.7849 311.551 58.7899 311.572 58.7899 311.594C58.7899 311.625 58.7783 311.65 58.7568 311.674C58.7354 311.697 58.7056 311.707 58.6709 311.712C58.6875 311.718 58.6982 311.726 58.7065 311.733C58.7238 311.75 58.7436 311.775 58.7676 311.815L58.8188 311.897H58.7362Z" fill="white"/>
<path d="M49.7669 309.824C48.8327 309.824 48.6436 310.244 48.6436 310.593C48.6436 310.773 48.746 311.074 49.1424 311.074C49.9098 311.074 50.0684 310.068 50.0444 309.854C50.0072 309.847 49.9841 309.825 49.7669 309.824Z" fill="white"/>
<path d="M58.7084 311.564C58.7017 311.556 58.6926 311.549 58.6802 311.543C58.6662 311.539 58.6455 311.535 58.6124 311.535V311.536H58.5371V311.662H58.619C58.6579 311.662 58.6835 311.657 58.6993 311.644C58.7117 311.632 58.7191 311.616 58.7191 311.598C58.7191 311.584 58.7158 311.576 58.7084 311.564Z" fill="white"/>
<circle cx="479" cy="545" r="30" fill="url(#paint7_linear)"/>
<g clip-path="url(#clip5)">
<path d="M488.289 547.14C488.431 546.49 488.507 545.815 488.507 545.123C488.509 539.932 484.303 535.719 479.112 535.712C478.564 535.711 478.027 535.758 477.504 535.847C476.665 535.317 475.671 535.009 474.605 535.007C471.595 535.003 469.153 537.441 469.152 540.451C469.152 541.457 469.425 542.399 469.9 543.209C469.775 543.819 469.71 544.451 469.709 545.099C469.707 550.289 473.914 554.503 479.105 554.51C479.693 554.511 480.268 554.457 480.826 554.354C481.593 554.768 482.47 555.003 483.402 555.005C486.412 555.008 488.854 552.571 488.855 549.561C488.855 548.691 488.651 547.87 488.289 547.14ZM483.927 549.609C483.492 550.224 482.849 550.71 482.017 551.055C481.192 551.397 480.204 551.569 479.079 551.568C477.73 551.566 476.598 551.327 475.715 550.857C475.083 550.515 474.563 550.053 474.168 549.482C473.769 548.906 473.566 548.334 473.567 547.783C473.567 547.439 473.699 547.14 473.959 546.896C474.217 546.654 474.547 546.532 474.94 546.532C475.263 546.533 475.542 546.63 475.768 546.822C475.984 547.005 476.17 547.277 476.319 547.628C476.485 548.009 476.667 548.332 476.858 548.586C477.043 548.83 477.308 549.035 477.646 549.196C477.987 549.358 478.446 549.44 479.011 549.441C479.788 549.442 480.425 549.277 480.905 548.95C481.373 548.631 481.601 548.248 481.601 547.778C481.601 547.407 481.482 547.115 481.238 546.886C480.982 546.647 480.645 546.46 480.235 546.332C479.808 546.198 479.228 546.054 478.511 545.902C477.54 545.693 476.714 545.445 476.056 545.165C476.053 545.164 476.051 545.163 476.048 545.162C475.374 544.874 474.831 544.476 474.434 543.978C474.031 543.473 473.827 542.839 473.827 542.094C473.827 541.384 474.042 540.744 474.466 540.193C474.886 539.645 475.5 539.22 476.291 538.928C477.071 538.641 477.999 538.496 479.049 538.497C479.888 538.498 480.626 538.596 481.242 538.789C481.861 538.982 482.383 539.244 482.794 539.565C483.207 539.888 483.514 540.234 483.707 540.593C483.902 540.956 484.001 541.317 484.001 541.666C484 542.002 483.871 542.307 483.615 542.572C483.357 542.84 483.032 542.975 482.649 542.975C482.301 542.974 482.029 542.889 481.84 542.721C481.664 542.565 481.482 542.323 481.279 541.974C481.045 541.528 480.762 541.177 480.436 540.929C480.121 540.688 479.593 540.566 478.867 540.565C478.193 540.564 477.645 540.698 477.239 540.964C476.846 541.221 476.656 541.515 476.656 541.865C476.656 542.079 476.717 542.258 476.843 542.412C476.976 542.575 477.165 542.719 477.403 542.838C477.65 542.963 477.904 543.062 478.159 543.133C478.42 543.205 478.859 543.313 479.46 543.453C480.093 543.59 480.683 543.74 481.219 543.901C481.327 543.934 481.434 543.966 481.537 543.999C482.163 544.201 482.704 544.448 483.145 544.736C483.595 545.03 483.951 545.407 484.204 545.856C484.457 546.308 484.586 546.865 484.585 547.512C484.585 548.286 484.363 548.992 483.927 549.609Z" fill="white"/>
</g>
<defs>
<linearGradient id="paint0_linear" x1="93" y1="25" x2="162" y2="153" gradientUnits="userSpaceOnUse">
<stop stop-color="#5AC5FB"/>
<stop offset="1" stop-color="#0071DC"/>
</linearGradient>
<linearGradient id="paint1_linear" x1="497" y1="265" x2="497" y2="379" gradientUnits="userSpaceOnUse">
<stop stop-color="#FF9667"/>
<stop offset="1" stop-color="#EF530D"/>
</linearGradient>
<linearGradient id="paint2_linear" x1="418" y1="0" x2="418" y2="94" gradientUnits="userSpaceOnUse">
<stop stop-color="#FFAEBC"/>
<stop offset="1" stop-color="#FE2771"/>
</linearGradient>
<linearGradient id="paint3_linear" x1="304" y1="189" x2="304" y2="283" gradientUnits="userSpaceOnUse">
<stop stop-color="#A7E11D"/>
<stop offset="1" stop-color="#2FB937"/>
</linearGradient>
<linearGradient id="paint4_linear" x1="315" y1="421" x2="315" y2="515" gradientUnits="userSpaceOnUse">
<stop stop-color="#C37AFF"/>
<stop offset="1" stop-color="#7B0AD6"/>
</linearGradient>
<linearGradient id="paint5_linear" x1="171" y1="528" x2="171" y2="608" gradientUnits="userSpaceOnUse">
<stop stop-color="#84D6FF"/>
<stop offset="1" stop-color="#1CA8EE"/>
</linearGradient>
<linearGradient id="paint6_linear" x1="29" y1="269" x2="40" y2="349" gradientUnits="userSpaceOnUse">
<stop stop-color="#F7C100"/>
<stop offset="1" stop-color="#F18900"/>
</linearGradient>
<linearGradient id="paint7_linear" x1="479" y1="515" x2="479" y2="575" gradientUnits="userSpaceOnUse">
<stop stop-color="#8AFFD1"/>
<stop offset="1" stop-color="#0CBD78"/>
</linearGradient>
<clipPath id="clip0">
<rect width="36.084" height="36.084" fill="white" transform="matrix(-1 0 0 1 149.084 71)"/>
</clipPath>
<clipPath id="clip1">
<rect width="40" height="40" fill="white" transform="matrix(-1 0 0 1 517 302)"/>
</clipPath>
<clipPath id="clip2">
<rect width="38" height="38" fill="white" transform="translate(285 217)"/>
</clipPath>
<clipPath id="clip3">
<rect width="28.8672" height="28.8672" fill="white" transform="matrix(-1 0 0 1 329.867 454)"/>
</clipPath>
<clipPath id="clip4">
<rect width="28" height="28" fill="white" transform="translate(157 554)"/>
</clipPath>
<clipPath id="clip5">
<rect width="20" height="20" fill="white" transform="matrix(-1 0 0 1 489 535)"/>
</clipPath>
</defs>
</svg>
