<svg width="952" height="657" viewBox="0 0 952 657" fill="none" xmlns="http://www.w3.org/2000/svg">
<circle cx="345.646" cy="64.5909" r="7.45219" stroke="#867EFF" stroke-opacity="0.25"/>
<path d="M653.781 91.6754L665.225 77.3216L676.669 91.6754H653.781Z" stroke="#867EFF" stroke-opacity="0.25"/>
<path d="M178.937 2.36314C178.995 2.09329 179.262 1.92205 179.531 1.98066L183.929 2.93584C184.199 2.99445 184.37 3.26072 184.311 3.53057C184.253 3.80043 183.986 3.97167 183.717 3.91305L179.808 3.06401L178.959 6.97286C178.9 7.24271 178.634 7.41395 178.364 7.35534C178.094 7.29672 177.923 7.03045 177.981 6.7606L178.937 2.36314ZM203.295 40.5107L179.005 2.73972L179.846 2.19882L204.136 39.9698L203.295 40.5107Z" fill="#867EFF" fill-opacity="0.25"/>
<path d="M535.505 10.5438L537.261 15.9488L537.373 16.2943H537.736H543.42L538.822 19.6348L538.528 19.8483L538.64 20.1938L540.396 25.5988L535.799 22.2583L535.505 22.0448L535.211 22.2583L530.613 25.5988L532.369 20.1938L532.481 19.8483L532.188 19.6348L527.59 16.2943H533.273H533.636L533.748 15.9488L535.505 10.5438Z" stroke="#867EFF" stroke-opacity="0.25"/>
<circle cx="186.602" cy="635.161" r="7.45219" stroke="#867EFF" stroke-opacity="0.25"/>
<path d="M606.093 650.316L594.649 635.962L583.204 650.316H606.093Z" stroke="#867EFF" stroke-opacity="0.25"/>
<path d="M438.618 650.551C438.341 650.542 438.125 650.312 438.133 650.036L438.27 645.538C438.279 645.262 438.51 645.045 438.786 645.053C439.062 645.062 439.278 645.292 439.27 645.568L439.148 649.566L443.146 649.688C443.422 649.697 443.639 649.928 443.63 650.204C443.622 650.48 443.391 650.696 443.115 650.688L438.618 650.551ZM471.685 619.645L438.975 650.415L438.29 649.687L471 618.917L471.685 619.645Z" fill="#867EFF" fill-opacity="0.25"/>
<path d="M315.825 576.143L317.581 581.548L317.693 581.894H318.057H323.74L319.142 585.234L318.848 585.448L318.96 585.793L320.717 591.198L316.119 587.858L315.825 587.644L315.531 587.858L310.933 591.198L312.69 585.793L312.802 585.448L312.508 585.234L307.91 581.894H313.593H313.957L314.069 581.548L315.825 576.143Z" stroke="#867EFF" stroke-opacity="0.25"/>
<path d="M47.9158 365.93C47.9979 365.667 47.8508 365.386 47.5871 365.304L43.2907 363.966C43.0271 363.884 42.7468 364.031 42.6646 364.295C42.5825 364.558 42.7297 364.839 42.9933 364.921L46.8124 366.11L45.6228 369.929C45.5407 370.193 45.6879 370.473 45.9515 370.556C46.2152 370.638 46.4955 370.491 46.5776 370.227L47.9158 365.93ZM7.90991 387.099L47.6709 366.224L47.206 365.339L7.44507 386.214L7.90991 387.099Z" fill="#867EFF" fill-opacity="0.25"/>
<path d="M56.3851 140.761L58.1413 146.166L58.2535 146.511H58.6168H64.2999L59.7022 149.852L59.4083 150.065L59.5205 150.411L61.2767 155.816L56.679 152.475L56.3851 152.262L56.0912 152.475L51.4934 155.816L53.2496 150.411L53.3618 150.065L53.0679 149.852L48.4702 146.511H54.1533H54.5166L54.6289 146.166L56.3851 140.761Z" stroke="#867EFF" stroke-opacity="0.25"/>
<circle cx="882.419" cy="585.46" r="7.45219" stroke="#867EFF" stroke-opacity="0.25"/>
<path d="M881.319 424.279L892.222 409.51L875.395 402.171L881.319 424.279Z" stroke="#867EFF" stroke-opacity="0.25"/>
<path d="M853.075 180.048C853.157 179.784 853.01 179.504 852.747 179.422L848.45 178.083C848.186 178.001 847.906 178.148 847.824 178.412C847.742 178.676 847.889 178.956 848.153 179.038L851.972 180.228L850.782 184.047C850.7 184.31 850.847 184.591 851.111 184.673C851.375 184.755 851.655 184.608 851.737 184.344L853.075 180.048ZM813.069 201.216L852.83 180.342L852.365 179.456L812.604 200.331L813.069 201.216Z" fill="#867EFF" fill-opacity="0.25"/>
<path d="M942.06 249.11L943.816 254.515L943.928 254.861H944.292H949.975L945.377 258.201L945.083 258.415L945.195 258.76L946.952 264.165L942.354 260.825L942.06 260.611L941.766 260.825L937.168 264.165L938.924 258.76L939.037 258.415L938.743 258.201L934.145 254.861H939.828H940.191L940.304 254.515L942.06 249.11Z" stroke="#867EFF" stroke-opacity="0.25"/>
</svg>
